<?xml version="1.0" encoding="UTF-8"?>
<svg xmlns="http://www.w3.org/2000/svg" xmlns:xlink="http://www.w3.org/1999/xlink" width="512" height="512" viewBox="166.4 44.7 177.6 177.6" role="img" aria-label="ИнтелиМед: логотип, обновленная teal-гамма">
  <title>ИнтелиМед: логотип, обновленная teal-гамма</title>
  <defs>
    <linearGradient id="grad1">
      <stop offset="0%" stop-color="#0F6B74" stop-opacity="1" />
      <stop offset="100%" stop-color="#11627B" stop-opacity="1" />
    </linearGradient>
    <linearGradient id="grad2">
      <stop offset="0%" stop-color="#0F6B74" stop-opacity="1" />
      <stop offset="100%" stop-color="#12323B" stop-opacity="1" />
    </linearGradient>
    <linearGradient xlink:href="#grad2" id="grad3" x1="0" y1="0" x2="0" y2="1" gradientTransform="rotate(225 .5 .5)" gradientUnits="objectBoundingBox" />
  </defs>
  <path id="logo-frame" d="M304.1629,192.5266 L205.6686,192.5266 C202.9039,192.5266 200.3907,191.3964 198.5703,189.5760 C196.7499,187.7556 195.6197,185.2424 195.6197,182.4778 L195.6197,84.0095 C195.6197,81.2446 196.7499,78.7314 198.5703,76.9110 C200.3907,75.0903 202.9039,73.9602 205.6686,73.9602 L304.1629,73.9602 C306.9281,73.9602 309.4407,75.0906 311.2611,76.9110 C313.0818,78.7314 314.2120,81.2446 314.2120,84.0095 L314.2120,182.4778 C314.2120,185.2427 313.0815,187.7556 311.2611,189.5760 C309.4407,191.3964 306.9275,192.5266 304.1629,192.5266 Z Z M205.6686,189.6919 L304.1629,189.6919 C306.1454,189.6919 307.9491,188.8798 309.2570,187.5719 C310.5649,186.2640 311.3773,184.4603 311.3773,182.4778 L311.3773,84.0095 C311.3773,82.0267 310.5652,80.2230 309.2570,78.9151 C307.9491,77.6072 306.1454,76.7948 304.1629,76.7948 L205.6686,76.7948 C203.6860,76.7948 201.8823,77.6069 200.5744,78.9151 C199.2665,80.2230 198.4544,82.0267 198.4544,84.0095 L198.4544,182.4778 C198.4544,184.4603 199.2665,186.2640 200.5744,187.5719 C201.8823,188.8798 203.6860,189.6919 205.6686,189.6919 Z" style="fill:url(#grad1)" />
  <path id="logo-diamond" d="M248.9119,219.8875 L341.5604,127.2391 Q335.5472,133.2523 341.5604,139.2655 L248.8939,46.5990 Q254.9071,52.6122 260.9203,46.5990 L168.2718,139.2474 Q174.2850,133.2343 168.2718,127.2211 L260.9383,219.8875 Q254.9251,213.8744 248.9119,219.8875 Z" style="fill:url(#grad3);stroke:#ffffff;stroke-width:2.8346;stroke-linejoin:miter;stroke-linecap:butt" />
  <path id="logo-dot" d="M233.2826,98.1533 C234.1274,98.5663 234.7936,99.1935 235.2813,100.0346 C235.4382,102.6212 235.4382,105.2079 235.2813,107.7945 C235.1706,108.2052 235.0137,108.5971 234.8111,108.9703 C234.1218,109.6252 233.3770,110.1740 232.5771,110.6164 C230.4671,111.8285 228.3507,113.0436 226.2280,114.2613 C224.4669,114.9027 223.1736,114.3934 222.3480,112.7328 C222.1912,109.8327 222.1912,106.9323 222.3480,104.0322 C222.6678,103.4388 223.0988,102.9686 223.6413,102.6212 C226.2216,101.1739 228.8083,99.7240 231.4013,98.2709 C232.0235,98.1541 232.6507,98.1148 233.2826,98.1533 Z" style="fill:#ffffff;fill-rule:evenodd" />
  <path id="logo-m" d="M247.8619,104.0322 C248.8762,104.0434 249.8167,104.3179 250.6837,104.8551 C254.1959,107.0419 257.8015,109.0406 261.5007,110.8515 C263.8247,109.9246 266.0197,108.7488 268.0850,107.3243 C269.9914,106.3312 271.8725,105.2730 273.7286,104.1497 C274.8922,103.9757 275.9896,104.1718 277.0208,104.7376 C280.1416,106.7702 283.3555,108.6907 286.6619,110.4988 C287.3180,110.9094 287.7100,111.4972 287.8377,112.2624 C287.8770,126.9203 287.8377,141.5783 287.7201,156.2358 C287.5538,156.6076 287.3579,156.9603 287.1322,157.2940 C284.9226,158.4751 282.8061,159.7684 280.7831,161.1739 C280.0302,161.5685 279.2464,161.9213 278.4317,162.2322 C276.5979,162.6681 275.3831,162.0019 274.7868,160.2334 C274.6697,159.4534 274.6304,158.6696 274.6692,157.8819 C274.7085,146.1240 274.6692,134.3665 274.5516,122.6091 C273.3688,120.8925 271.9186,120.5790 270.2013,121.6685 C267.7842,123.0345 265.3544,124.4064 262.9117,125.7836 C262.1836,126.2608 261.7918,126.9269 261.7358,127.7824 C261.5009,137.2269 261.4226,146.7115 261.5007,156.2358 C261.3366,156.7453 261.0231,157.1764 260.5601,157.5291 C259.9160,157.7704 259.3675,158.1231 258.9140,158.5873 C257.0077,159.5804 255.1265,160.6385 253.2704,161.7618 C251.9446,162.5122 250.6120,162.5122 249.2728,161.7618 C248.9112,161.3075 248.6367,160.7980 248.4498,160.2334 C248.3322,150.6709 248.2930,141.1080 248.3322,131.5448 C248.3715,128.5653 248.3322,125.5866 248.2147,122.6091 C247.2715,121.1451 245.9781,120.7140 244.3347,121.3158 C242.3370,122.3535 240.3776,123.4510 238.4559,124.6079 C237.6140,125.1434 236.8301,125.7312 236.1044,126.3715 C235.8010,126.5027 235.6051,126.7379 235.5165,127.0770 C235.3989,136.0909 235.3596,145.1049 235.3989,154.1194 C235.5381,156.0606 234.7544,157.4715 233.0474,158.3521 C230.6342,159.4018 228.3610,160.6952 226.2280,162.2322 C224.0578,162.8732 222.6861,162.1285 222.1129,159.9982 C221.9953,153.0225 221.9560,146.0464 221.9953,139.0697 C221.9953,132.6423 221.9953,126.2147 221.9953,119.7873 C222.3221,119.0995 222.7924,118.5116 223.4062,118.0237 C226.3129,116.3357 229.2130,114.6504 232.1067,112.9679 C237.3544,109.9958 242.6063,107.0174 247.8619,104.0322 Z" style="fill:#ffffff;fill-rule:evenodd" />
</svg>
